<svg xmlns="http://www.w3.org/2000/svg" viewBox="0 0 96 96" role="img" aria-label="WhatsApp">
  <defs>
    <linearGradient id="wappGradient" x1="18" y1="12" x2="82" y2="86" gradientUnits="userSpaceOnUse">
      <stop offset="0" stop-color="#39e98d"/>
      <stop offset="0.55" stop-color="#25d366"/>
      <stop offset="1" stop-color="#0fb65c"/>
    </linearGradient>
    <filter id="softShadow" x="-20%" y="-20%" width="140%" height="140%">
      <feDropShadow dx="0" dy="8" stdDeviation="8" flood-color="#0b8f49" flood-opacity="0.26"/>
    </filter>
  </defs>
  <circle cx="48" cy="48" r="42" fill="url(#wappGradient)" filter="url(#softShadow)"/>
  <path d="M48.3 24.2c-13.1 0-23.8 10.4-23.8 23.2 0 4.4 1.3 8.6 3.6 12.2l-3.8 12.2 12.7-3.6c3.4 1.7 7.3 2.7 11.3 2.7 13.1 0 23.8-10.4 23.8-23.2S61.4 24.2 48.3 24.2Zm0 41.9c-3.6 0-6.9-.9-9.8-2.6l-1.2-.7-7.1 2 2.1-6.8-.8-1.2c-2-2.8-3.1-6.1-3.1-9.5 0-10.1 8.4-18.3 18.9-18.3s18.9 8.2 18.9 18.3-8.5 18.8-18.9 18.8Z" fill="#fff"/>
  <path d="M59.5 52.9c-.6-.3-3.8-1.8-4.4-2-.6-.2-1-.3-1.5.3-.4.6-1.7 2-2.1 2.4-.4.4-.8.5-1.4.2-.6-.3-2.7-1-5.1-3.1-1.9-1.7-3.2-3.7-3.6-4.3-.4-.6 0-.9.3-1.2.3-.3.6-.8.9-1.1.3-.4.4-.6.6-1 .2-.4.1-.8 0-1.1-.2-.3-1.5-3.5-2-4.8-.5-1.2-1-1.1-1.5-1.1h-1.3c-.4 0-1.1.2-1.7.8-.6.6-2.2 2.1-2.2 5.1s2.3 6 2.6 6.4c.3.4 4.5 6.8 10.9 9.5 1.5.7 2.7 1 3.7 1.3 1.5.5 2.9.4 4 .2 1.2-.2 3.8-1.5 4.3-2.9.5-1.4.5-2.6.4-2.9-.2-.2-.6-.4-1.2-.7Z" fill="#fff"/>
</svg>
